<mxfile host="app.diagrams.net" modified="2021-10-02T17:16:47.178Z" agent="5.0 (X11; Linux x86_64) AppleWebKit/537.36 (KHTML, like Gecko) Chrome/94.0.4606.61 Safari/537.36" etag="FNRBHd5hYaehu8nVTbAD" version="15.4.1" type="github">
  <diagram id="6HBwjFxYw_YkVQj3P1bm" name="Page-1">
    <mxGraphModel dx="1038" dy="536" grid="1" gridSize="10" guides="1" tooltips="1" connect="1" arrows="1" fold="1" page="1" pageScale="1" pageWidth="850" pageHeight="1100" math="0" shadow="0">
      <root>
        <mxCell id="0" />
        <mxCell id="1" parent="0" />
        <mxCell id="cVunB8VhKsrYb8RdIBrN-3" value="" style="edgeStyle=orthogonalEdgeStyle;rounded=0;orthogonalLoop=1;jettySize=auto;html=1;" edge="1" parent="1" source="cVunB8VhKsrYb8RdIBrN-1" target="cVunB8VhKsrYb8RdIBrN-2">
          <mxGeometry relative="1" as="geometry" />
        </mxCell>
        <mxCell id="cVunB8VhKsrYb8RdIBrN-1" value="Material App" style="rounded=1;whiteSpace=wrap;html=1;" vertex="1" parent="1">
          <mxGeometry x="350" y="40" width="120" height="60" as="geometry" />
        </mxCell>
        <mxCell id="cVunB8VhKsrYb8RdIBrN-5" value="" style="edgeStyle=orthogonalEdgeStyle;rounded=0;orthogonalLoop=1;jettySize=auto;html=1;" edge="1" parent="1" source="cVunB8VhKsrYb8RdIBrN-2" target="cVunB8VhKsrYb8RdIBrN-4">
          <mxGeometry relative="1" as="geometry" />
        </mxCell>
        <mxCell id="cVunB8VhKsrYb8RdIBrN-7" value="" style="edgeStyle=orthogonalEdgeStyle;rounded=0;orthogonalLoop=1;jettySize=auto;html=1;" edge="1" parent="1" source="cVunB8VhKsrYb8RdIBrN-2" target="cVunB8VhKsrYb8RdIBrN-6">
          <mxGeometry relative="1" as="geometry" />
        </mxCell>
        <mxCell id="cVunB8VhKsrYb8RdIBrN-9" value="" style="edgeStyle=orthogonalEdgeStyle;rounded=0;orthogonalLoop=1;jettySize=auto;html=1;" edge="1" parent="1" source="cVunB8VhKsrYb8RdIBrN-2" target="cVunB8VhKsrYb8RdIBrN-8">
          <mxGeometry relative="1" as="geometry" />
        </mxCell>
        <mxCell id="cVunB8VhKsrYb8RdIBrN-2" value="Scaffold" style="whiteSpace=wrap;html=1;rounded=1;" vertex="1" parent="1">
          <mxGeometry x="350" y="180" width="120" height="60" as="geometry" />
        </mxCell>
        <mxCell id="cVunB8VhKsrYb8RdIBrN-4" value="Color" style="whiteSpace=wrap;html=1;rounded=1;" vertex="1" parent="1">
          <mxGeometry x="90" y="320" width="120" height="60" as="geometry" />
        </mxCell>
        <mxCell id="cVunB8VhKsrYb8RdIBrN-13" value="" style="edgeStyle=orthogonalEdgeStyle;rounded=0;orthogonalLoop=1;jettySize=auto;html=1;" edge="1" parent="1" source="cVunB8VhKsrYb8RdIBrN-6" target="cVunB8VhKsrYb8RdIBrN-12">
          <mxGeometry relative="1" as="geometry" />
        </mxCell>
        <mxCell id="cVunB8VhKsrYb8RdIBrN-6" value="Center" style="whiteSpace=wrap;html=1;rounded=1;" vertex="1" parent="1">
          <mxGeometry x="570" y="320" width="120" height="60" as="geometry" />
        </mxCell>
        <mxCell id="cVunB8VhKsrYb8RdIBrN-17" value="" style="edgeStyle=orthogonalEdgeStyle;rounded=0;orthogonalLoop=1;jettySize=auto;html=1;" edge="1" parent="1" source="cVunB8VhKsrYb8RdIBrN-8" target="cVunB8VhKsrYb8RdIBrN-16">
          <mxGeometry relative="1" as="geometry" />
        </mxCell>
        <mxCell id="cVunB8VhKsrYb8RdIBrN-19" style="edgeStyle=orthogonalEdgeStyle;rounded=0;orthogonalLoop=1;jettySize=auto;html=1;" edge="1" parent="1" source="cVunB8VhKsrYb8RdIBrN-8">
          <mxGeometry relative="1" as="geometry">
            <mxPoint x="250" y="460" as="targetPoint" />
          </mxGeometry>
        </mxCell>
        <mxCell id="cVunB8VhKsrYb8RdIBrN-8" value="AppBar" style="whiteSpace=wrap;html=1;rounded=1;" vertex="1" parent="1">
          <mxGeometry x="350" y="320" width="120" height="60" as="geometry" />
        </mxCell>
        <mxCell id="cVunB8VhKsrYb8RdIBrN-15" value="" style="edgeStyle=orthogonalEdgeStyle;rounded=0;orthogonalLoop=1;jettySize=auto;html=1;" edge="1" parent="1" source="cVunB8VhKsrYb8RdIBrN-12" target="cVunB8VhKsrYb8RdIBrN-14">
          <mxGeometry relative="1" as="geometry" />
        </mxCell>
        <mxCell id="cVunB8VhKsrYb8RdIBrN-12" value="Image" style="whiteSpace=wrap;html=1;rounded=1;" vertex="1" parent="1">
          <mxGeometry x="690" y="450" width="120" height="60" as="geometry" />
        </mxCell>
        <mxCell id="cVunB8VhKsrYb8RdIBrN-14" value="NetworkImage" style="whiteSpace=wrap;html=1;rounded=1;" vertex="1" parent="1">
          <mxGeometry x="570" y="600" width="120" height="60" as="geometry" />
        </mxCell>
        <mxCell id="cVunB8VhKsrYb8RdIBrN-16" value="Text" style="whiteSpace=wrap;html=1;rounded=1;" vertex="1" parent="1">
          <mxGeometry x="490" y="460" width="120" height="60" as="geometry" />
        </mxCell>
        <mxCell id="cVunB8VhKsrYb8RdIBrN-20" value="Color" style="rounded=1;whiteSpace=wrap;html=1;" vertex="1" parent="1">
          <mxGeometry x="180" y="460" width="120" height="60" as="geometry" />
        </mxCell>
      </root>
    </mxGraphModel>
  </diagram>
</mxfile>
